<svg width="385" height="361" viewBox="0 0 385 361" fill="none" xmlns="http://www.w3.org/2000/svg">
<g opacity="0.1">
<mask id="mask0_1_470" style="mask-type:alpha" maskUnits="userSpaceOnUse" x="0" y="0" width="386" height="361">
<rect x="384.5" y="0.5" width="360" height="384" transform="rotate(90 384.5 0.5)" fill="url(#paint0_linear_1_470)" stroke="#6246E5"/>
</mask>
<g mask="url(#mask0_1_470)">
<path d="M141.505 453.92C72.1725 453.92 15.9659 397.635 15.9659 328.202C15.9659 258.769 72.1725 202.484 141.505 202.484C210.838 202.484 267.045 258.769 267.045 328.202C267.045 397.635 210.838 453.92 141.505 453.92Z" stroke="#6246E5"/>
<path d="M154.773 458.902C77.1967 458.902 14.3076 395.925 14.3076 318.237C14.3076 240.55 77.1967 177.573 154.773 177.573C232.349 177.573 295.238 240.55 295.238 318.237C295.238 395.925 232.349 458.902 154.773 458.902Z" stroke="#6246E5"/>
<path d="M165.552 463.885C80.6489 463.885 11.8199 394.959 11.8199 309.934C11.8199 224.909 80.6489 155.983 165.552 155.983C250.456 155.983 319.285 224.909 319.285 309.934C319.285 394.959 250.456 463.885 165.552 463.885Z" stroke="#6246E5"/>
<path d="M181.308 467.206C89.9928 467.206 15.9663 393.076 15.9663 301.63C15.9663 210.184 89.9929 136.054 181.308 136.054C272.623 136.054 346.649 210.184 346.649 301.63C346.649 393.076 272.623 467.206 181.308 467.206Z" stroke="#6246E5"/>
<path d="M196.648 470.528C99.1505 470.528 20.1122 391.378 20.1122 293.742C20.1122 196.105 99.1505 116.955 196.648 116.955C294.145 116.955 373.183 196.105 373.183 293.742C373.183 391.379 294.145 470.528 196.648 470.528Z" stroke="#6246E5"/>
<path d="M214.061 474.68C106.947 474.68 20.1122 387.723 20.1122 280.456C20.1122 173.188 106.947 86.2314 214.061 86.2314C321.176 86.2314 408.01 173.188 408.01 280.456C408.01 387.723 321.176 474.68 214.061 474.68Z" stroke="#6246E5"/>
</g>
</g>
<defs>
<linearGradient id="paint0_linear_1_470" x1="641.035" y1="10.8016" x2="467.819" y2="420.053" gradientUnits="userSpaceOnUse">
<stop stop-color="#747DEF"/>
<stop offset="1" stop-color="#5E3BE1"/>
</linearGradient>
</defs>
</svg>
